# xmcd
#
# Track frame offsets:
#	150
#	23213
#	42794
#	64917
#	85400
#	104637
#	126989
#	144938
#	163210
#	185510
#	201831
#	222645
#	241374
#
# Disc length: 3580 seconds
#
# Revision: 0
# Processed by: cddbd v1.5.1PL2 Copyright (c) Steve Scherf et al.
# Submitted via: EasyCDDAExtractor 9.0.0.1
#
DISCID=c70dfa0d
DTITLE=Demi Evans - Why do you run
DYEAR=2006
DGENRE=Jazz+Funk
TTITLE0=Why do you run
TTITLE1=Passing judgment
TTITLE2=Picking beans
TTITLE3=Be good to me as i am to you
TTITLE4=Hard spot
TTITLE5=Thinking about the past
TTITLE6=Words for a hum
TTITLE7=Platinum age
TTITLE8=All this flowers
TTITLE9=Trying to live life without you
TTITLE10=Heart in my hands
TTITLE11=Backwards to forwards
TTITLE12=They won't go when i go
EXTD=
EXTT0=
EXTT1=
EXTT2=
EXTT3=
EXTT4=
EXTT5=
EXTT6=
EXTT7=
EXTT8=
EXTT9=
EXTT10=
EXTT11=
EXTT12=
PLAYORDER=
